<?xml version="1.0" encoding="utf-8"?>
<!-- Generator: Adobe Illustrator 21.0.2, SVG Export Plug-In . SVG Version: 6.00 Build 0)  -->
<svg version="1.1" id="Layer_1" xmlns="http://www.w3.org/2000/svg" xmlns:xlink="http://www.w3.org/1999/xlink" x="0px" y="0px"
	 viewBox="0 0 512 512" style="enable-background:new 0 0 512 512;" xml:space="preserve">
<style type="text/css">
	.st0{fill:#99CC99;}
	.st1{fill:#D3D2D2;}
	.st2{fill:#BDBCBC;}
	.st3{fill:#A7A6A6;}
	.st4{fill:#7B7979;}
	.st5{fill:#6DDAE1;}
	.st6{fill:#4FC4D4;}
	.st7{fill:#FF8C78;}
	.st8{fill:#DF7A6E;}
	.st9{fill:#1EA9BD;}
	.st10{fill:#C4DF64;}
	.st11{fill:#96CA62;}
</style>
<circle class="st0" cx="256.4" cy="255.3" r="251.3"/>
<path class="st1" d="M201.8,227.3c0-2.9-2.4-5.3-5.3-5.3H117c-2.9,0-5.3,2.4-5.3,5.3v181h90.1V227.3z"/>
<path class="st2" d="M201.8,227.3c0-2.9-2.4-5.3-5.3-5.3h-17.3v186h22.6V227.3z"/>
<g>
	<path class="st3" d="M134,283.7c-2.9,0-5.3-2.4-5.3-5.3v-34.1c0-2.9,2.4-5.3,5.3-5.3c2.9,0,5.3,2.4,5.3,5.3v34.1
		C139.3,281.3,136.9,283.7,134,283.7z"/>
	<path class="st3" d="M156.7,283.7c-2.9,0-5.3-2.4-5.3-5.3v-34.1c0-2.9,2.4-5.3,5.3-5.3c2.9,0,5.3,2.4,5.3,5.3v34.1
		C162,281.3,159.6,283.7,156.7,283.7z"/>
	<path class="st3" d="M179.4,283.7c-2.9,0-5.3-2.4-5.3-5.3v-34.1c0-2.9,2.4-5.3,5.3-5.3c2.9,0,5.3,2.4,5.3,5.3v34.1
		C184.7,281.3,182.4,283.7,179.4,283.7z"/>
	<path class="st3" d="M134,323.4c-2.9,0-5.3-2.4-5.3-5.3v-17c0-2.9,2.4-5.3,5.3-5.3c2.9,0,5.3,2.4,5.3,5.3v17
		C139.3,321,136.9,323.4,134,323.4z"/>
	<path class="st3" d="M156.7,323.4c-2.9,0-5.3-2.4-5.3-5.3v-17c0-2.9,2.4-5.3,5.3-5.3c2.9,0,5.3,2.4,5.3,5.3v17
		C162,321,159.6,323.4,156.7,323.4z"/>
	<path class="st3" d="M179.4,323.4c-2.9,0-5.3-2.4-5.3-5.3v-17c0-2.9,2.4-5.3,5.3-5.3c2.9,0,5.3,2.4,5.3,5.3v17
		C184.7,321,182.4,323.4,179.4,323.4z"/>
</g>
<path class="st1" d="M400.5,198.9c0-2.9-2.4-5.3-5.3-5.3h-79.5c-2.9,0-5.3,2.4-5.3,5.3v209.4h90.1V198.9z"/>
<path class="st2" d="M332.5,193.5h-16.8c-2.9,0-5.3,2.4-5.3,5.3v209h22.1V193.5z"/>
<g>
	<path class="st3" d="M332.7,323.4c-2.9,0-5.3-2.4-5.3-5.3v-17c0-2.9,2.4-5.3,5.3-5.3c2.9,0,5.3,2.4,5.3,5.3v17
		C338.1,321,335.7,323.4,332.7,323.4z"/>
	<path class="st3" d="M355.4,323.4c-2.9,0-5.3-2.4-5.3-5.3v-17c0-2.9,2.4-5.3,5.3-5.3s5.3,2.4,5.3,5.3v17
		C360.8,321,358.4,323.4,355.4,323.4z"/>
	<path class="st3" d="M378.2,323.4c-2.9,0-5.3-2.4-5.3-5.3v-17c0-2.9,2.4-5.3,5.3-5.3s5.3,2.4,5.3,5.3v17
		C383.5,321,381.1,323.4,378.2,323.4z"/>
	<path class="st3" d="M332.7,226.9c-2.9,0-5.3-2.4-5.3-5.3v-5.7c0-2.9,2.4-5.3,5.3-5.3c2.9,0,5.3,2.4,5.3,5.3v5.7
		C338.1,224.5,335.7,226.9,332.7,226.9z"/>
	<path class="st3" d="M355.4,226.9c-2.9,0-5.3-2.4-5.3-5.3v-5.7c0-2.9,2.4-5.3,5.3-5.3s5.3,2.4,5.3,5.3v5.7
		C360.8,224.5,358.4,226.9,355.4,226.9z"/>
	<path class="st3" d="M378.2,226.9c-2.9,0-5.3-2.4-5.3-5.3v-5.7c0-2.9,2.4-5.3,5.3-5.3s5.3,2.4,5.3,5.3v5.7
		C383.5,224.5,381.1,226.9,378.2,226.9z"/>
	<path class="st3" d="M332.7,255.3c-2.9,0-5.3-2.4-5.3-5.3v-5.7c0-2.9,2.4-5.3,5.3-5.3c2.9,0,5.3,2.4,5.3,5.3v5.7
		C338.1,252.9,335.7,255.3,332.7,255.3z"/>
	<path class="st3" d="M355.4,255.3c-2.9,0-5.3-2.4-5.3-5.3v-5.7c0-2.9,2.4-5.3,5.3-5.3s5.3,2.4,5.3,5.3v5.7
		C360.8,252.9,358.4,255.3,355.4,255.3z"/>
	<path class="st3" d="M378.2,255.3c-2.9,0-5.3-2.4-5.3-5.3v-5.7c0-2.9,2.4-5.3,5.3-5.3s5.3,2.4,5.3,5.3v5.7
		C383.5,252.9,381.1,255.3,378.2,255.3z"/>
	<path class="st3" d="M332.7,283.7c-2.9,0-5.3-2.4-5.3-5.3v-5.7c0-2.9,2.4-5.3,5.3-5.3c2.9,0,5.3,2.4,5.3,5.3v5.7
		C338.1,281.3,335.7,283.7,332.7,283.7z"/>
	<path class="st3" d="M355.4,283.7c-2.9,0-5.3-2.4-5.3-5.3v-5.7c0-2.9,2.4-5.3,5.3-5.3s5.3,2.4,5.3,5.3v5.7
		C360.8,281.3,358.4,283.7,355.4,283.7z"/>
	<path class="st3" d="M378.2,283.7c-2.9,0-5.3-2.4-5.3-5.3v-5.7c0-2.9,2.4-5.3,5.3-5.3s5.3,2.4,5.3,5.3v5.7
		C383.5,281.3,381.1,283.7,378.2,283.7z"/>
</g>
<path class="st4" d="M256.1,119c-2.9,0-5.3-2.4-5.3-5.3V79.6c0-2.9,2.4-5.3,5.3-5.3c2.9,0,5.3,2.4,5.3,5.3v34.1
	C261.4,116.6,259,119,256.1,119z"/>
<path class="st5" d="M270.3,108.4h-28.4c-2.9,0-5.3,2.4-5.3,5.3v28.4c0,2.9,2.4,5.3,5.3,5.3h28.4c2.9,0,5.3-2.4,5.3-5.3v-28.4
	C275.6,110.8,273.2,108.4,270.3,108.4z"/>
<path class="st6" d="M236.6,124.8v17.3c0,2.9,2.4,5.3,5.3,5.3h28.4c2.9,0,5.3-2.4,5.3-5.3v-17.3H236.6z"/>
<path class="st7" d="M298.7,131.1h-85.2c-2.9,0-5.3,2.4-5.3,5.3v34.1c0,2.9,2.4,5.3,5.3,5.3h85.2c2.9,0,5.3-2.4,5.3-5.3v-34.1
	C304,133.5,301.6,131.1,298.7,131.1z"/>
<path class="st8" d="M208.2,148v22.5c0,2.9,2.4,5.3,5.3,5.3h85.2c2.9,0,5.3-2.4,5.3-5.3V148C304,148,208.2,148,208.2,148z"/>
<path class="st5" d="M321,159.1c0-2.9-2.4-5.3-5.3-5.3H196.5c-2.9,0-5.3,2.4-5.3,5.3v249.1H321L321,159.1L321,159.1z"/>
<rect x="191.1" y="369.4" class="st6" width="129.9" height="38.8"/>
<g>
	<path class="st9" d="M256.1,323.4c-2.9,0-5.3-2.4-5.3-5.3v-5.7c0-2.9,2.4-5.3,5.3-5.3c2.9,0,5.3,2.4,5.3,5.3v5.7
		C261.4,321,259,323.4,256.1,323.4z"/>
	<path class="st9" d="M236.2,323.4c-2.9,0-5.3-2.4-5.3-5.3v-5.7c0-2.9,2.4-5.3,5.3-5.3c2.9,0,5.3,2.4,5.3,5.3v5.7
		C241.5,321,239.1,323.4,236.2,323.4z"/>
	<path class="st9" d="M275.9,323.4c-2.9,0-5.3-2.4-5.3-5.3v-5.7c0-2.9,2.4-5.3,5.3-5.3s5.3,2.4,5.3,5.3v5.7
		C281.3,321,278.9,323.4,275.9,323.4z"/>
	<path class="st9" d="M213.5,323.4c-2.9,0-5.3-2.4-5.3-5.3v-5.7c0-2.9,2.4-5.3,5.3-5.3s5.3,2.4,5.3,5.3v5.7
		C218.8,321,216.4,323.4,213.5,323.4z"/>
	<path class="st9" d="M298.7,323.4c-2.9,0-5.3-2.4-5.3-5.3v-5.7c0-2.9,2.4-5.3,5.3-5.3c2.9,0,5.3,2.4,5.3,5.3v5.7
		C304,321,301.6,323.4,298.7,323.4z"/>
	<path class="st9" d="M256.1,201.2c-2.9,0-5.3-2.4-5.3-5.3v-17.7c0-2.9,2.4-5.3,5.3-5.3c2.9,0,5.3,2.4,5.3,5.3v17.7
		C261.4,198.8,259,201.2,256.1,201.2z"/>
	<path class="st9" d="M236.2,201.2c-2.9,0-5.3-2.4-5.3-5.3v-17.7c0-2.9,2.4-5.3,5.3-5.3c2.9,0,5.3,2.4,5.3,5.3v17.7
		C241.5,198.8,239.1,201.2,236.2,201.2z"/>
	<path class="st9" d="M276,201.2c-2.9,0-5.3-2.4-5.3-5.3v-17.7c0-2.9,2.4-5.3,5.3-5.3c2.9,0,5.3,2.4,5.3,5.3v17.7
		C281.3,198.8,278.9,201.2,276,201.2z"/>
	<path class="st9" d="M213.5,201.2c-2.9,0-5.3-2.4-5.3-5.3v-17.7c0-2.9,2.4-5.3,5.3-5.3c2.9,0,5.3,2.4,5.3,5.3v17.7
		C218.8,198.8,216.4,201.2,213.5,201.2z"/>
	<path class="st9" d="M298.7,201.2c-2.9,0-5.3-2.4-5.3-5.3v-17.7c0-2.9,2.4-5.3,5.3-5.3s5.3,2.4,5.3,5.3v17.7
		C304,198.8,301.6,201.2,298.7,201.2z"/>
	<path class="st9" d="M256.1,226.9c-2.9,0-5.3-2.4-5.3-5.3v-5.7c0-2.9,2.4-5.3,5.3-5.3c2.9,0,5.3,2.4,5.3,5.3v5.7
		C261.4,224.5,259,226.9,256.1,226.9z"/>
	<path class="st9" d="M236.2,226.9c-2.9,0-5.3-2.4-5.3-5.3v-5.7c0-2.9,2.4-5.3,5.3-5.3c2.9,0,5.3,2.4,5.3,5.3v5.7
		C241.5,224.5,239.1,226.9,236.2,226.9z"/>
	<path class="st9" d="M275.9,226.9c-2.9,0-5.3-2.4-5.3-5.3v-5.7c0-2.9,2.4-5.3,5.3-5.3s5.3,2.4,5.3,5.3v5.7
		C281.3,224.5,278.9,226.9,275.9,226.9z"/>
	<path class="st9" d="M213.5,226.9c-2.9,0-5.3-2.4-5.3-5.3v-5.7c0-2.9,2.4-5.3,5.3-5.3s5.3,2.4,5.3,5.3v5.7
		C218.8,224.5,216.4,226.9,213.5,226.9z"/>
	<path class="st9" d="M298.7,226.9c-2.9,0-5.3-2.4-5.3-5.3v-5.7c0-2.9,2.4-5.3,5.3-5.3c2.9,0,5.3,2.4,5.3,5.3v5.7
		C304,224.5,301.6,226.9,298.7,226.9z"/>
	<path class="st9" d="M256.1,295c-2.9,0-5.3-2.4-5.3-5.3v-45.4c0-2.9,2.4-5.3,5.3-5.3c2.9,0,5.3,2.4,5.3,5.3v45.4
		C261.4,292.7,259,295,256.1,295z"/>
	<path class="st9" d="M236.2,295c-2.9,0-5.3-2.4-5.3-5.3v-45.4c0-2.9,2.4-5.3,5.3-5.3c2.9,0,5.3,2.4,5.3,5.3v45.4
		C241.5,292.7,239.1,295,236.2,295z"/>
	<path class="st9" d="M276,295c-2.9,0-5.3-2.4-5.3-5.3v-45.4c0-2.9,2.4-5.3,5.3-5.3s5.3,2.4,5.3,5.3v45.4
		C281.3,292.7,278.9,295,276,295z"/>
	<path class="st9" d="M213.5,295c-2.9,0-5.3-2.4-5.3-5.3v-45.4c0-2.9,2.4-5.3,5.3-5.3c2.9,0,5.3,2.4,5.3,5.3v45.4
		C218.8,292.7,216.4,295,213.5,295z"/>
	<path class="st9" d="M298.7,295c-2.9,0-5.3-2.4-5.3-5.3v-45.4c0-2.9,2.4-5.3,5.3-5.3s5.3,2.4,5.3,5.3v45.4
		C304,292.7,301.6,295,298.7,295z"/>
	<path class="st9" d="M261.4,340.8c0-2.9-2.4-5.3-5.3-5.3c-2.9,0-5.3,2.4-5.3,5.3v67.4h10.6L261.4,340.8L261.4,340.8z"/>
	<path class="st9" d="M241.5,340.8c0-2.9-2.4-5.3-5.3-5.3c-2.9,0-5.3,2.4-5.3,5.3v67.4h10.6L241.5,340.8L241.5,340.8z"/>
	<path class="st9" d="M281.3,340.8c0-2.9-2.4-5.3-5.3-5.3s-5.3,2.4-5.3,5.3v67.4h10.6L281.3,340.8L281.3,340.8z"/>
</g>
<path class="st8" d="M151,409c-2.9,0-5.3-2.4-5.3-5.3v-22.7c0-2.9,2.4-5.3,5.3-5.3c2.9,0,5.3,2.4,5.3,5.3v22.7
	C156.4,406.6,154,409,151,409z"/>
<path class="st10" d="M168.1,349.7c-4.7-13.4-10.3-19.9-17.1-19.9s-12.4,6.5-17.1,19.9c-3.1,8.7-5.3,19.3-5.3,25.2
	c0,12.3,10,22.4,22.4,22.4c12.3,0,22.4-10,22.4-22.4C173.4,369,171.2,358.4,168.1,349.7z"/>
<path class="st11" d="M159.2,389.1c-12.3,0-22.4-10-22.4-22.4c0-5.9,2.2-16.5,5.3-25.2c1.5-4.4,3.2-8,4.9-10.9
	c-5,2.1-9.3,8.4-13.1,19.1c-3.1,8.7-5.3,19.3-5.3,25.2c0,12.3,10,22.4,22.4,22.4c8.3,0,15.5-4.5,19.3-11.2
	C167.1,388,163.3,389.1,159.2,389.1z"/>
<path class="st8" d="M196.5,409c-2.9,0-5.3-2.4-5.3-5.3v-22.7c0-2.9,2.4-5.3,5.3-5.3c2.9,0,5.3,2.4,5.3,5.3v22.7
	C201.8,406.6,199.4,409,196.5,409z"/>
<path class="st10" d="M213.5,349.7c-4.7-13.4-10.3-19.9-17.1-19.9c-6.8,0-12.4,6.5-17.1,19.9c-3.1,8.7-5.3,19.3-5.3,25.2
	c0,12.3,10,22.4,22.4,22.4s22.4-10,22.4-22.4C218.8,369,216.6,358.4,213.5,349.7z"/>
<path class="st11" d="M202.5,391.2c-12.3,0-22.4-10-22.4-22.4c0-5.9,2.2-16.5,5.3-25.2c1.8-5.2,3.8-9.3,5.9-12.5
	c-4.5,2.6-8.5,8.7-11.9,18.5c-3.1,8.7-5.3,19.3-5.3,25.2c0,12.3,10,22.4,22.4,22.4c7.7,0,14.5-3.9,18.5-9.9
	C211.4,389.8,207.1,391.2,202.5,391.2z"/>
<path class="st8" d="M315.7,409c-2.9,0-5.3-2.4-5.3-5.3v-22.7c0-2.9,2.4-5.3,5.3-5.3c2.9,0,5.3,2.4,5.3,5.3v22.7
	C321,406.6,318.6,409,315.7,409z"/>
<path class="st10" d="M332.8,349.7c-4.7-13.4-10.3-19.9-17.1-19.9c-6.8,0-12.4,6.5-17.1,19.9c-3.1,8.7-5.3,19.3-5.3,25.2
	c0,12.3,10,22.4,22.4,22.4c12.3,0,22.4-10,22.4-22.4C338.1,369,335.8,358.4,332.8,349.7z"/>
<path class="st11" d="M321.7,391.2c-12.3,0-22.4-10-22.4-22.4c0-5.9,2.2-16.5,5.3-25.2c1.8-5.2,3.8-9.3,5.9-12.5
	c-4.5,2.6-8.5,8.7-11.9,18.5c-3.1,8.7-5.3,19.3-5.3,25.2c0,12.3,10,22.4,22.4,22.4c7.7,0,14.5-3.9,18.5-9.9
	C330.7,389.8,326.4,391.2,321.7,391.2z"/>
<path class="st8" d="M361.1,409c-2.9,0-5.3-2.4-5.3-5.3v-22.7c0-2.9,2.4-5.3,5.3-5.3c2.9,0,5.3,2.4,5.3,5.3v22.7
	C366.4,406.6,364.1,409,361.1,409z"/>
<path class="st10" d="M378.2,349.7c-4.7-13.4-10.3-19.9-17.1-19.9c-6.8,0-12.4,6.5-17.1,19.9c-3.1,8.7-5.3,19.3-5.3,25.2
	c0,12.3,10,22.4,22.4,22.4c12.3,0,22.4-10,22.4-22.4C383.5,369,381.3,358.4,378.2,349.7z"/>
<path class="st11" d="M367.2,391.2c-12.3,0-22.4-10-22.4-22.4c0-5.9,2.2-16.5,5.3-25.2c1.8-5.2,3.8-9.3,5.9-12.5
	c-4.5,2.6-8.5,8.7-11.9,18.5c-3.1,8.7-5.3,19.3-5.3,25.2c0,12.3,10,22.4,22.4,22.4c7.7,0,14.5-3.9,18.5-9.9
	C376.1,389.8,371.8,391.2,367.2,391.2z"/>
<path class="st4" d="M417.9,414.3H94.2c-2.9,0-5.3-2.4-5.3-5.3c0-2.9,2.4-5.3,5.3-5.3h323.7c2.9,0,5.3,2.4,5.3,5.3
	C423.2,411.9,420.8,414.3,417.9,414.3z"/>
</svg>
