<svg xmlns="http://www.w3.org/2000/svg" viewBox="0 0 502.67 502.67"><defs><style>.cls-1{fill:#399;}.cls-2{fill:#d3d2d2;}.cls-3{fill:#bdbcbc;}.cls-4{fill:#a7a6a6;}.cls-5{fill:#7b7979;}.cls-6{fill:#6ddae1;}.cls-7{fill:#4fc4d4;}.cls-8{fill:#ff8c78;}.cls-9{fill:#df7a6e;}.cls-10{fill:#1ea9bd;}.cls-11{fill:#c4df64;}.cls-12{fill:#96ca62;}</style></defs><title>commercial</title><g id="Layer_2" data-name="Layer 2"><g id="Layer_1-2" data-name="Layer 1"><circle class="cls-1" cx="251.34" cy="251.34" r="251.34"/><path class="cls-2" d="M196.71,223.3a5.32,5.32,0,0,0-5.32-5.32h-79.5a5.32,5.32,0,0,0-5.32,5.32v181h90.14Z"/><path class="cls-3" d="M196.71,223.3a5.32,5.32,0,0,0-5.32-5.32H174.11v186h22.59Z"/><path class="cls-4" d="M128.92,279.73a5.32,5.32,0,0,1-5.32-5.32V240.33a5.32,5.32,0,1,1,10.65,0V274.4A5.32,5.32,0,0,1,128.92,279.73Z"/><path class="cls-4" d="M151.63,279.73a5.32,5.32,0,0,1-5.32-5.32V240.33a5.32,5.32,0,1,1,10.65,0V274.4A5.32,5.32,0,0,1,151.63,279.73Z"/><path class="cls-4" d="M174.35,279.73A5.32,5.32,0,0,1,169,274.4V240.33a5.32,5.32,0,1,1,10.65,0V274.4A5.32,5.32,0,0,1,174.35,279.73Z"/><path class="cls-4" d="M128.92,319.47a5.32,5.32,0,0,1-5.32-5.32v-17a5.32,5.32,0,0,1,10.65,0v17A5.32,5.32,0,0,1,128.92,319.47Z"/><path class="cls-4" d="M151.63,319.47a5.32,5.32,0,0,1-5.32-5.32v-17a5.32,5.32,0,0,1,10.65,0v17A5.32,5.32,0,0,1,151.63,319.47Z"/><path class="cls-4" d="M174.35,319.47a5.32,5.32,0,0,1-5.32-5.32v-17a5.32,5.32,0,0,1,10.65,0v17A5.32,5.32,0,0,1,174.35,319.47Z"/><path class="cls-2" d="M395.44,194.91a5.32,5.32,0,0,0-5.32-5.32h-79.5a5.32,5.32,0,0,0-5.32,5.32V404.29h90.14Z"/><path class="cls-3" d="M327.42,189.58h-16.8a5.32,5.32,0,0,0-5.32,5.32v209h22.12Z"/><path class="cls-4" d="M327.66,319.47a5.32,5.32,0,0,1-5.32-5.32v-17a5.32,5.32,0,0,1,10.65,0v17A5.32,5.32,0,0,1,327.66,319.47Z"/><path class="cls-4" d="M350.37,319.47a5.32,5.32,0,0,1-5.32-5.32v-17a5.32,5.32,0,0,1,10.65,0v17A5.32,5.32,0,0,1,350.37,319.47Z"/><path class="cls-4" d="M373.09,319.47a5.32,5.32,0,0,1-5.32-5.32v-17a5.32,5.32,0,0,1,10.65,0v17A5.32,5.32,0,0,1,373.09,319.47Z"/><path class="cls-4" d="M327.66,222.94a5.32,5.32,0,0,1-5.32-5.32v-5.68a5.32,5.32,0,1,1,10.65,0v5.68A5.32,5.32,0,0,1,327.66,222.94Z"/><path class="cls-4" d="M350.37,222.94a5.32,5.32,0,0,1-5.32-5.32v-5.68a5.32,5.32,0,1,1,10.65,0v5.68A5.32,5.32,0,0,1,350.37,222.94Z"/><path class="cls-4" d="M373.09,222.94a5.32,5.32,0,0,1-5.32-5.32v-5.68a5.32,5.32,0,1,1,10.65,0v5.68A5.32,5.32,0,0,1,373.09,222.94Z"/><path class="cls-4" d="M327.66,251.34a5.32,5.32,0,0,1-5.32-5.32v-5.68a5.32,5.32,0,1,1,10.65,0V246A5.32,5.32,0,0,1,327.66,251.34Z"/><path class="cls-4" d="M350.37,251.34A5.32,5.32,0,0,1,345,246v-5.68a5.32,5.32,0,1,1,10.65,0V246A5.32,5.32,0,0,1,350.37,251.34Z"/><path class="cls-4" d="M373.09,251.34a5.32,5.32,0,0,1-5.32-5.32v-5.68a5.32,5.32,0,1,1,10.65,0V246A5.32,5.32,0,0,1,373.09,251.34Z"/><path class="cls-4" d="M327.66,279.73a5.32,5.32,0,0,1-5.32-5.32v-5.68a5.32,5.32,0,0,1,10.65,0v5.68A5.32,5.32,0,0,1,327.66,279.73Z"/><path class="cls-4" d="M350.37,279.73A5.32,5.32,0,0,1,345,274.4v-5.68a5.32,5.32,0,0,1,10.65,0v5.68A5.32,5.32,0,0,1,350.37,279.73Z"/><path class="cls-4" d="M373.09,279.73a5.32,5.32,0,0,1-5.32-5.32v-5.68a5.32,5.32,0,0,1,10.65,0v5.68A5.32,5.32,0,0,1,373.09,279.73Z"/><path class="cls-5" d="M251,115.06a5.32,5.32,0,0,1-5.32-5.32V75.67a5.32,5.32,0,1,1,10.65,0v34.07A5.32,5.32,0,0,1,251,115.06Z"/><path class="cls-6" d="M265.2,104.41H236.81a5.32,5.32,0,0,0-5.32,5.32v28.39a5.32,5.32,0,0,0,5.32,5.32H265.2a5.32,5.32,0,0,0,5.32-5.32V109.74A5.32,5.32,0,0,0,265.2,104.41Z"/><path class="cls-7" d="M231.48,120.85v17.27a5.32,5.32,0,0,0,5.32,5.32H265.2a5.32,5.32,0,0,0,5.32-5.32V120.85Z"/><path class="cls-8" d="M293.59,127.12H208.42a5.32,5.32,0,0,0-5.32,5.32v34.07a5.32,5.32,0,0,0,5.32,5.32h85.17a5.32,5.32,0,0,0,5.32-5.32V132.45A5.32,5.32,0,0,0,293.59,127.12Z"/><path class="cls-9" d="M203.09,144v22.48a5.32,5.32,0,0,0,5.32,5.32h85.17a5.32,5.32,0,0,0,5.32-5.32V144Z"/><path class="cls-6" d="M315.95,155.16a5.32,5.32,0,0,0-5.32-5.32H191.38a5.32,5.32,0,0,0-5.32,5.32V404.29H315.95V155.16Z"/><rect class="cls-7" x="186.06" y="365.49" width="129.89" height="38.8"/><path class="cls-10" d="M251,319.47a5.32,5.32,0,0,1-5.32-5.32v-5.68a5.32,5.32,0,0,1,10.65,0v5.68A5.32,5.32,0,0,1,251,319.47Z"/><path class="cls-10" d="M231.13,319.47a5.32,5.32,0,0,1-5.32-5.32v-5.68a5.32,5.32,0,0,1,10.65,0v5.68A5.32,5.32,0,0,1,231.13,319.47Z"/><path class="cls-10" d="M270.88,319.47a5.32,5.32,0,0,1-5.32-5.32v-5.68a5.32,5.32,0,0,1,10.65,0v5.68A5.32,5.32,0,0,1,270.88,319.47Z"/><path class="cls-10" d="M208.42,319.47a5.32,5.32,0,0,1-5.32-5.32v-5.68a5.32,5.32,0,0,1,10.65,0v5.68A5.32,5.32,0,0,1,208.42,319.47Z"/><path class="cls-10" d="M293.59,319.47a5.32,5.32,0,0,1-5.32-5.32v-5.68a5.32,5.32,0,0,1,10.65,0v5.68A5.32,5.32,0,0,1,293.59,319.47Z"/><path class="cls-10" d="M251,197.27a5.32,5.32,0,0,1-5.32-5.32V174.21a5.32,5.32,0,0,1,10.65,0v17.74A5.32,5.32,0,0,1,251,197.27Z"/><path class="cls-10" d="M231.13,197.27a5.32,5.32,0,0,1-5.32-5.32V174.21a5.32,5.32,0,0,1,10.65,0v17.74A5.32,5.32,0,0,1,231.13,197.27Z"/><path class="cls-10" d="M270.88,197.27a5.32,5.32,0,0,1-5.32-5.32V174.21a5.32,5.32,0,0,1,10.65,0v17.74A5.32,5.32,0,0,1,270.88,197.27Z"/><path class="cls-10" d="M208.42,197.27a5.32,5.32,0,0,1-5.32-5.32V174.21a5.32,5.32,0,0,1,10.65,0v17.74A5.32,5.32,0,0,1,208.42,197.27Z"/><path class="cls-10" d="M293.59,197.27a5.32,5.32,0,0,1-5.32-5.32V174.21a5.32,5.32,0,0,1,10.65,0v17.74A5.32,5.32,0,0,1,293.59,197.27Z"/><path class="cls-10" d="M251,222.94a5.32,5.32,0,0,1-5.32-5.32v-5.68a5.32,5.32,0,1,1,10.65,0v5.68A5.32,5.32,0,0,1,251,222.94Z"/><path class="cls-10" d="M231.13,222.94a5.32,5.32,0,0,1-5.32-5.32v-5.68a5.32,5.32,0,1,1,10.65,0v5.68A5.32,5.32,0,0,1,231.13,222.94Z"/><path class="cls-10" d="M270.88,222.94a5.32,5.32,0,0,1-5.32-5.32v-5.68a5.32,5.32,0,1,1,10.65,0v5.68A5.32,5.32,0,0,1,270.88,222.94Z"/><path class="cls-10" d="M208.42,222.94a5.32,5.32,0,0,1-5.32-5.32v-5.68a5.32,5.32,0,1,1,10.65,0v5.68A5.32,5.32,0,0,1,208.42,222.94Z"/><path class="cls-10" d="M293.59,222.94a5.32,5.32,0,0,1-5.32-5.32v-5.68a5.32,5.32,0,1,1,10.65,0v5.68A5.32,5.32,0,0,1,293.59,222.94Z"/><path class="cls-10" d="M251,291.08a5.32,5.32,0,0,1-5.32-5.32V240.33a5.32,5.32,0,1,1,10.65,0v45.42A5.32,5.32,0,0,1,251,291.08Z"/><path class="cls-10" d="M231.13,291.08a5.32,5.32,0,0,1-5.32-5.32V240.33a5.32,5.32,0,1,1,10.65,0v45.42A5.32,5.32,0,0,1,231.13,291.08Z"/><path class="cls-10" d="M270.88,291.08a5.32,5.32,0,0,1-5.32-5.32V240.33a5.32,5.32,0,1,1,10.65,0v45.42A5.32,5.32,0,0,1,270.88,291.08Z"/><path class="cls-10" d="M208.42,291.08a5.32,5.32,0,0,1-5.32-5.32V240.33a5.32,5.32,0,1,1,10.65,0v45.42A5.32,5.32,0,0,1,208.42,291.08Z"/><path class="cls-10" d="M293.59,291.08a5.32,5.32,0,0,1-5.32-5.32V240.33a5.32,5.32,0,1,1,10.65,0v45.42A5.32,5.32,0,0,1,293.59,291.08Z"/><path class="cls-10" d="M256.33,336.86a5.32,5.32,0,0,0-10.65,0v67.43h10.65V336.86Z"/><path class="cls-10" d="M236.45,336.86a5.32,5.32,0,0,0-10.65,0v67.43h10.65V336.86Z"/><path class="cls-10" d="M276.2,336.86a5.32,5.32,0,0,0-10.65,0v67.43H276.2V336.86Z"/><path class="cls-9" d="M146,405a5.32,5.32,0,0,1-5.32-5.32V377a5.32,5.32,0,0,1,10.65,0v22.71A5.32,5.32,0,0,1,146,405Z"/><path class="cls-11" d="M163,345.76c-4.71-13.39-10.29-19.9-17.07-19.9s-12.35,6.51-17.07,19.9c-3.07,8.71-5.29,19.3-5.29,25.17a22.36,22.36,0,0,0,44.72,0C168.31,365.06,166.09,354.48,163,345.76Z"/><path class="cls-12" d="M154.12,385.13a22.38,22.38,0,0,1-22.36-22.36c0-5.87,2.23-16.46,5.29-25.17a61.43,61.43,0,0,1,4.9-10.92c-5,2.13-9.31,8.42-13.06,19.08-3.07,8.71-5.29,19.3-5.29,25.17a22.35,22.35,0,0,0,41.71,11.18A22.21,22.21,0,0,1,154.12,385.13Z"/><path class="cls-9" d="M191.38,405a5.32,5.32,0,0,1-5.32-5.32V377a5.32,5.32,0,0,1,10.65,0v22.71A5.32,5.32,0,0,1,191.38,405Z"/><path class="cls-11" d="M208.45,345.76c-4.71-13.39-10.29-19.9-17.07-19.9s-12.35,6.51-17.07,19.9c-3.07,8.71-5.29,19.3-5.29,25.17a22.36,22.36,0,0,0,44.72,0C213.74,365.06,211.51,354.48,208.45,345.76Z"/><path class="cls-12" d="M197.42,387.26a22.38,22.38,0,0,1-22.36-22.36c0-5.87,2.23-16.46,5.29-25.17a56.16,56.16,0,0,1,5.89-12.48c-4.53,2.56-8.46,8.68-11.92,18.51-3.07,8.71-5.29,19.3-5.29,25.17a22.35,22.35,0,0,0,40.89,12.5A22.23,22.23,0,0,1,197.42,387.26Z"/><path class="cls-9" d="M310.62,405a5.32,5.32,0,0,1-5.32-5.32V377a5.32,5.32,0,0,1,10.65,0v22.71A5.32,5.32,0,0,1,310.62,405Z"/><path class="cls-11" d="M327.69,345.76c-4.71-13.39-10.29-19.9-17.07-19.9s-12.35,6.51-17.07,19.9c-3.07,8.71-5.29,19.3-5.29,25.17a22.36,22.36,0,0,0,44.72,0C333,365.06,330.76,354.48,327.69,345.76Z"/><path class="cls-12" d="M316.66,387.26A22.38,22.38,0,0,1,294.3,364.9c0-5.87,2.23-16.46,5.29-25.17a56.16,56.16,0,0,1,5.89-12.48c-4.53,2.56-8.46,8.68-11.92,18.51-3.07,8.71-5.29,19.3-5.29,25.17a22.35,22.35,0,0,0,40.89,12.5A22.23,22.23,0,0,1,316.66,387.26Z"/><path class="cls-9" d="M356.05,405a5.32,5.32,0,0,1-5.32-5.32V377a5.32,5.32,0,0,1,10.65,0v22.71A5.32,5.32,0,0,1,356.05,405Z"/><path class="cls-11" d="M373.12,345.76c-4.71-13.39-10.29-19.9-17.07-19.9s-12.35,6.51-17.07,19.9c-3.07,8.71-5.29,19.3-5.29,25.17a22.36,22.36,0,1,0,44.72,0C378.41,365.06,376.18,354.48,373.12,345.76Z"/><path class="cls-12" d="M362.08,387.26a22.38,22.38,0,0,1-22.36-22.36c0-5.87,2.23-16.46,5.29-25.17a56.16,56.16,0,0,1,5.89-12.48c-4.53,2.56-8.46,8.68-11.92,18.51-3.07,8.71-5.29,19.3-5.29,25.17a22.35,22.35,0,0,0,40.89,12.5A22.23,22.23,0,0,1,362.08,387.26Z"/></g></g></svg>