<?xml version="1.0" encoding="utf-8"?>
<!-- Generator: Adobe Illustrator 21.0.2, SVG Export Plug-In . SVG Version: 6.00 Build 0)  -->
<svg version="1.1" id="Layer_1" xmlns="http://www.w3.org/2000/svg" xmlns:xlink="http://www.w3.org/1999/xlink" x="0px" y="0px"
	 viewBox="0 0 508 508" style="enable-background:new 0 0 508 508;" xml:space="preserve">
<style type="text/css">
	.st0{fill:#90DFAA;}
	.st1{fill:#2C9984;}
	.st2{fill:#E6E9EE;}
	.st3{fill:#324A5E;}
	.st4{fill:#FFFFFF;}
	.st5{fill:#84DBFF;}
	.st6{fill:#54C0EB;}
</style>
<circle class="st0" cx="250" cy="258" r="250"/>
<path class="st1" d="M66.8,425.6C113.2,476.4,180,508,254,508s140.8-31.6,187.2-82.4H66.8z"/>
<rect x="90.8" y="220.8" class="st2" width="326.4" height="204.8"/>
<path class="st3" d="M425.2,194.4H82.8c-2,0-3.2,1.6-3.2,3.2v19.6c0,2,1.6,3.2,3.2,3.2h342.4c2,0,3.2-1.6,3.2-3.2v-19.6
	C428.4,196,426.8,194.4,425.2,194.4z"/>
<polygon class="st4" points="338,153.6 338,425.6 170,425.6 170,153.6 254,112.8 "/>
<path class="st3" d="M351.6,168.8c-1.2,0-2.4-0.4-4-0.8L254,122.4L160,168c-4.4,2-9.6,0.4-11.6-4s-0.4-9.6,4-11.6l97.6-47.6
	c2.4-1.2,5.2-1.2,7.6,0l97.6,47.2c4.4,2,6.4,7.2,4,11.6C358,167.2,354.8,168.8,351.6,168.8z"/>
<g>
	<rect x="186" y="168.8" class="st5" width="24" height="24"/>
	<rect x="223.6" y="168.8" class="st5" width="24" height="24"/>
	<rect x="260.8" y="168.8" class="st5" width="24" height="24"/>
	<rect x="298" y="168.8" class="st5" width="24" height="24"/>
	<rect x="186" y="214" class="st5" width="24" height="24"/>
	<rect x="223.6" y="214" class="st5" width="24" height="24"/>
	<rect x="260.8" y="214" class="st5" width="24" height="24"/>
	<rect x="298" y="214" class="st5" width="24" height="24"/>
	<rect x="186" y="259.2" class="st5" width="24" height="24"/>
	<rect x="223.6" y="259.2" class="st5" width="24" height="24"/>
	<rect x="260.8" y="259.2" class="st5" width="24" height="24"/>
	<rect x="298" y="259.2" class="st5" width="24" height="24"/>
	<rect x="186" y="304" class="st5" width="24" height="24"/>
	<rect x="223.6" y="304" class="st5" width="24" height="24"/>
	<rect x="260.8" y="304" class="st5" width="24" height="24"/>
	<rect x="298" y="304" class="st5" width="24" height="24"/>
</g>
<g>
	<rect x="346.8" y="238" class="st6" width="24" height="24"/>
	<rect x="384" y="238" class="st6" width="24" height="24"/>
	<rect x="346.8" y="276.8" class="st6" width="24" height="24"/>
	<rect x="384" y="276.8" class="st6" width="24" height="24"/>
	<rect x="346.8" y="316" class="st6" width="24" height="24"/>
	<rect x="384" y="316" class="st6" width="24" height="24"/>
	<rect x="100.4" y="238" class="st6" width="24" height="24"/>
	<rect x="137.6" y="238" class="st6" width="24" height="24"/>
	<rect x="100.4" y="276.8" class="st6" width="24" height="24"/>
	<rect x="137.6" y="276.8" class="st6" width="24" height="24"/>
	<rect x="100.4" y="316" class="st6" width="24" height="24"/>
	<rect x="137.6" y="316" class="st6" width="24" height="24"/>
</g>
<rect x="230.8" y="371.2" class="st3" width="46.4" height="54.4"/>
</svg>
