<?xml version="1.0" encoding="utf-8"?>
<!-- Generator: Adobe Illustrator 21.0.2, SVG Export Plug-In . SVG Version: 6.00 Build 0)  -->
<svg version="1.1" id="Layer_1" xmlns="http://www.w3.org/2000/svg" xmlns:xlink="http://www.w3.org/1999/xlink" x="0px" y="0px"
	 viewBox="0 0 505 505" style="enable-background:new 0 0 505 505;" xml:space="preserve">
<style type="text/css">
	.st0{fill:#339999;}
	.st1{fill:#324A5E;}
	.st2{fill:#FFFFFF;}
	.st3{fill:#FF7058;}
	.st4{fill:#FFD05B;}
</style>
<circle class="st0" cx="252.5" cy="252.5" r="252.5"/>
<rect x="117.2" y="176.9" class="st1" width="259.7" height="170.8"/>
<g>
	<path class="st2" d="M383.6,108.6H108c-6.8,0-12.3,5.5-12.3,12.3V179c0,6.8,5.5,12.3,12.3,12.3h275.6c6.8,0,12.3-5.5,12.3-12.3
		v-58.1C395.8,114.1,390.3,108.6,383.6,108.6z"/>
	<path class="st2" d="M383.6,211.2H108c-6.8,0-12.3,5.5-12.3,12.3v58.1c0,6.8,5.5,12.3,12.3,12.3h275.6c6.8,0,12.3-5.5,12.3-12.3
		v-58.1C395.8,216.7,390.3,211.2,383.6,211.2z"/>
	<path class="st2" d="M383.6,313.8H108c-6.8,0-12.3,5.5-12.3,12.3v58.1c0,6.8,5.5,12.3,12.3,12.3h275.6c6.8,0,12.3-5.5,12.3-12.3
		v-58.1C395.8,319.2,390.3,313.8,383.6,313.8z"/>
</g>
<circle class="st3" cx="128.1" cy="148.3" r="14"/>
<circle class="st4" cx="173.2" cy="148.3" r="14"/>
<circle class="st3" cx="128.1" cy="252.5" r="14"/>
<circle class="st4" cx="173.2" cy="252.5" r="14"/>
<circle class="st3" cx="128.1" cy="356.7" r="14"/>
<circle class="st4" cx="173.2" cy="356.7" r="14"/>
</svg>
