<?xml version="1.0" encoding="utf-8"?>
<!-- Generator: Adobe Illustrator 21.0.2, SVG Export Plug-In . SVG Version: 6.00 Build 0)  -->
<svg version="1.1" id="Layer_1" xmlns="http://www.w3.org/2000/svg" xmlns:xlink="http://www.w3.org/1999/xlink" x="0px" y="0px"
	 viewBox="0 0 512 512" style="enable-background:new 0 0 512 512;" xml:space="preserve">
<style type="text/css">
	.st0{fill:#32BEA6;}
	.st1{fill:#E2E4E5;}
	.st2{fill:#C7CBCC;}
	.st3{fill:#FFFFFF;}
	.st4{fill:#DADDDE;}
</style>
<circle class="st0" cx="250" cy="262" r="250"/>
<g>
	<path class="st1" d="M295.3,118.6v88.8h-54.5v-20.7c0-32.6,22.5-60.9,54.3-68.1C295.2,118.6,295.2,118.6,295.3,118.6z"/>
	<path class="st1" d="M340.8,121.1v68l-18.2,18.2h-90.4c1,8.8,3.4,17.1,7,24.8L118.4,353.1c-12.4,12.4-12.4,32.6,0,45
		c12.4,12.4,32.6,12.4,45,0L286,275.3c49.7,17.8,103-15.7,108.8-68C399,167.8,375.2,133.3,340.8,121.1z M138.4,389.3
		c-6.3,0-11.4-5.1-11.4-11.4s5.1-11.4,11.4-11.4c6.3,0,11.4,5.1,11.4,11.4C149.8,384.2,144.7,389.3,138.4,389.3z"/>
</g>
<g>
	<rect x="302.4" y="218.7" class="st2" width="9.3" height="37.2"/>
	<rect x="321" y="218.7" class="st2" width="9.3" height="37.2"/>
</g>
<g>
	<path class="st3" d="M232.2,207.4c1,8.8,3.4,17.1,7,24.8L118.4,353.1c-12.3,12.3-12.4,32.3-0.2,44.7l12.1-12.1
		c-2-2-3.2-4.8-3.2-7.9c0-6.3,5.1-11.4,11.4-11.4c3.1,0,5.8,1.2,7.9,3.2l162.4-162.4L232.2,207.4L232.2,207.4L232.2,207.4z"/>
	<path class="st3" d="M373.4,142.6c-8.9-9.6-20-17-32.7-21.5v54.1L373.4,142.6z"/>
</g>
<rect x="283.8" y="218.7" class="st2" width="9.3" height="37.2"/>
<polygon class="st4" points="293.1,223.1 293.1,218.7 283.8,218.7 283.8,232.4 "/>
</svg>
