<?xml version="1.0" encoding="utf-8"?>
<!-- Generator: Adobe Illustrator 21.0.2, SVG Export Plug-In . SVG Version: 6.00 Build 0)  -->
<svg version="1.1" id="Layer_1" xmlns="http://www.w3.org/2000/svg" xmlns:xlink="http://www.w3.org/1999/xlink" x="0px" y="0px"
	 viewBox="0 0 512 512" style="enable-background:new 0 0 512 512;" xml:space="preserve">
<style type="text/css">
	.st0{fill:#339999;}
	.st1{fill:#1B8975;}
	.st2{fill:#D5A247;}
	.st3{fill:#C08A30;}
	.st4{fill:#FFCC66;}
	.st5{fill:#660000;}
	.st6{fill:#FFFFFF;}
	.st7{fill:#168ECD;}
	.st8{fill:#F89C1E;}
	.st9{fill:#55B7E2;}
</style>
<circle class="st0" cx="256" cy="256" r="256"/>
<path class="st1" d="M375.9,128.1l-7.3,12.1l-92,60.5l-208,151.7l-7.2,5.5l152.1,150.6c13.8,2.3,28,3.6,42.4,3.6
	c139.1,0,252.3-111,255.8-249.3L375.9,128.1z"/>
<polygon class="st2" points="423.4,246.8 193.3,246.8 193.3,383.6 423.4,377.2 "/>
<polygon class="st3" points="353.2,379.1 270,381.7 270,239.5 353.2,239.5 "/>
<polygon class="st4" points="193.3,383.6 61.5,356.7 61.5,237 121.8,130.9 193.3,237 "/>
<polygon class="st5" points="123,138.6 184.4,255.5 465.3,255.5 375.8,128.4 113.5,128.4 46.7,255.5 61.5,255.5 "/>
<polygon class="st6" points="155.4,315.2 85.3,308.4 85.3,241.3 155.4,235 "/>
<g>
	<polygon class="st7" points="114.3,272.1 88.6,272.2 88.6,244.5 114.3,242.4 	"/>
	<polygon class="st7" points="150.4,272 119.9,272.1 119.9,242 150.4,239.5 	"/>
	<polygon class="st7" points="114.3,307 88.6,304.8 88.6,277 114.3,277.3 	"/>
	<polygon class="st7" points="150.4,310.1 119.9,307.4 119.9,277.3 150.4,277.6 	"/>
</g>
<polygon class="st6" points="334.4,379.8 288.8,381.2 288.8,306.3 334.4,306.3 "/>
<polygon class="st8" points="330.4,379.9 292.9,381.1 292.9,309.7 330.4,309.6 "/>
<rect x="216.9" y="272.1" class="st6" width="32.3" height="71.2"/>
<rect x="221" y="275.1" class="st9" width="24" height="65.3"/>
<rect x="370.2" y="272.1" class="st6" width="32.3" height="71.2"/>
<rect x="374.4" y="275.1" class="st9" width="24" height="65.3"/>
</svg>
